<svg width="1710" height="2446" xmlns="http://www.w3.org/2000/svg" xmlns:xlink="http://www.w3.org/1999/xlink" xml:space="preserve" overflow="hidden"><g transform="translate(-1358 -7)"><path d="M1658.51 490.479 1663.07 479.561 1655.66 461.176 1620.86 436.469 1613.44 442.792 1603.74 442.792 1589.48 457.154 1592.33 482.436 1585.48 484.732 1587.19 501.397 1607.16 519.782 1607.73 534.719 1594.04 544.489 1602.03 560.002 1637.4 564.597 1655.66 567.469 1674.48 555.403 1671.63 546.785 1661.93 536.443 1666.5 526.101 1661.36 514.035 1664.21 503.693Z" stroke="#FFFFFF" stroke-width="3.4375" stroke-miterlimit="8" fill="#B9B9B9" fill-rule="evenodd"/><path d="M1621.48 601.852 1633.34 606.469 1637.48 596.661 1632.74 591.469Z" stroke="#FFFFFF" stroke-width="3.4375" stroke-miterlimit="8" fill="#B9B9B9" fill-rule="evenodd"/><path d="M1591.67 533.777 1598.48 517.974 1580.31 500.479 1576.33 478.47 1562.14 481.856 1558.16 499.917 1552.48 501.044 1576.33 520.233 1576.9 535.47Z" stroke="#FFFFFF" stroke-width="3.4375" stroke-miterlimit="8" fill="#B9B9B9" fill-rule="evenodd"/><path d="M1527.48 465.594 1536.1 479.469 1553.33 470.218 1566.54 471.952 1581.48 454.03 1576.88 449.406 1559.65 445.358 1544.72 442.469 1533.23 447.672 1532.08 455.764Z" stroke="#FFFFFF" stroke-width="3.4375" stroke-miterlimit="8" fill="#B9B9B9" fill-rule="evenodd"/><path d="M1646.85 642.744 1655.4 630.531 1667.94 627.041 1684.48 620.641 1675.36 605.52 1655.4 594.469 1650.27 599.703 1646.28 613.082 1622.9 614.245 1625.18 623.551 1615.48 630.531 1630.88 651.469Z" stroke="#FFFFFF" stroke-width="3.4375" stroke-miterlimit="8" fill="#B9B9B9" fill-rule="evenodd"/><path d="M1638.48 664.363 1631.14 661.469 1625.48 663.206 1633.96 672.469Z" stroke="#FFFFFF" stroke-width="3.4375" stroke-miterlimit="8" fill="#B9B9B9" fill-rule="evenodd"/><path d="M1650.34 737.783 1635.48 731.469 1623.48 738.93 1624.05 759.025 1632.63 762.469 1642.34 754.43 1646.34 749.263 1655.48 747.541Z" stroke="#FFFFFF" stroke-width="3.4375" stroke-miterlimit="8" fill="#B9B9B9" fill-rule="evenodd"/><path d="M1499.18 771.214 1506.48 762.746 1495.26 752.019 1486.83 747.503 1485.71 739.598 1481.22 738.47 1477.29 750.325 1474.48 766.133 1484.59 768.389 1491.32 773.47Z" stroke="#FFFFFF" stroke-width="3.4375" stroke-miterlimit="8" fill="#B9B9B9" fill-rule="evenodd"/><path d="M1578.48 757.469 1587.48 749.235 1578.48 744.527 1560.48 737.468 1561.05 745.706Z" stroke="#FFFFFF" stroke-width="3.4375" stroke-miterlimit="8" fill="#B9B9B9" fill-rule="evenodd"/><path d="M1394.87 610.469 1394.01 601.645 1395.73 596.351 1409.48 590.174 1401.75 581.351 1386.27 580.469 1375.96 584.88 1363.06 583.998 1360.48 587.527 1367.36 597.233 1371.66 606.057 1383.69 606.939Z" stroke="#FFFFFF" stroke-width="3.4375" stroke-miterlimit="8" fill="#B9B9B9" fill-rule="evenodd"/><path d="M1384.32 651.295 1378.48 654.773 1385.98 663.469 1395.98 661.73 1398.48 653.904 1398.48 646.947 1392.65 643.469Z" stroke="#FFFFFF" stroke-width="3.4375" stroke-miterlimit="8" fill="#B9B9B9" fill-rule="evenodd"/><path d="M1466.34 655.47 1465.48 661.393 1475.77 666.47 1475.77 661.393 1477.48 656.316Z" stroke="#FFFFFF" stroke-width="3.4375" stroke-miterlimit="8" fill="#B9B9B9" fill-rule="evenodd"/><path d="M1753.52 567.926 1748.48 565.122 1748.95 564.494 1716.43 540.469 1707.87 555.914 1682.48 567.068 1694.46 581.939 1695.89 597.672 1717 599.673 1702.45 601.963 1702.17 611.401 1708.3 612.255 1703.73 616.834 1696.89 621.34 1696.25 621.34 1695.6 629.062 1690.9 635.711 1690.68 643.004 1694.32 646.223 1699.24 642.146 1699.88 649.227 1706.16 653.156 1706.16 653.156 1711.01 660.878 1722.42 670.317 1731.83 676.896 1750.38 677.469 1771.77 636.569 1765.78 632.278 1756.94 624.556 1756.65 609.97 1763.22 604.537 1763.22 601.963 1765.21 585.372 1775.48 571.643 1773.49 569.927Z" stroke="#FFFFFF" stroke-width="3.4375" stroke-miterlimit="8" fill="#B9B9B9" fill-rule="evenodd"/><path d="M1668.05 759.442 1668.48 778.037 1678.77 778.469 1687.77 764.631 1700.63 774.145 1700.2 760.739 1704.48 756.848 1702.77 752.091 1697.2 743.874 1686.48 742.144 1680.91 732.631 1665.48 730.469 1673.2 744.307 1676.63 754.685Z" stroke="#FFFFFF" stroke-width="3.4375" stroke-miterlimit="8" fill="#B9B9B9" fill-rule="evenodd"/><path d="M2101.03 527.918 2102.75 494.664 2086.12 496.955 2087.27 483.768 2097.02 472.301 2088.42 456.82 2094.72 447.069 2091.86 431.016 2114.79 409.225 2124.54 409.225 2127.98 389.732 2120.53 379.982 2119.38 367.369 2091.86 366.22 2093 344.432 2063.18 342.137 2060.89 336.977 2058.02 321.495 2052.29 286.52 2046.55 282.505 2042.54 288.24 2023.62 281.36 2011 290.532 2005.84 295.692 1998.96 283.651 1984.62 280.21 1989.78 250.967 1982.33 246.381 1957.1 268.169 1943.43 255.601 1943.91 244.086 1936.45 232.045 1929 213.697 1916.96 220.004 1910.65 211.977 1911.22 188.469 1879.11 204.522 1857.32 221.153 1849.86 236.06 1842.41 230.899 1828.07 237.78 1820.05 235.485 1809.72 221.724 1755.82 276.77 1769.01 289.386 1773.6 300.282 1794.81 301.427 1809.72 293.972 1821.19 304.293 1815.46 324.364 1813.17 336.977 1794.81 327.805 1790.8 345.007 1782.77 350.167 1786.21 365.649 1793.67 365.074 1787.93 400.624 1779.33 403.493 1776.46 392.023 1768.44 391.452 1770.73 381.131 1766.72 361.634 1760.98 353.608 1752.38 365.649 1752.95 371.955 1743.2 382.276 1723.13 369.66 1722.56 392.023 1741.48 393.172 1762.13 427.001 1736.9 429.296 1726 435.028 1722.56 462.551 1711.67 463.7 1700.2 478.607 1678.41 476.887 1672.1 469.432 1659.48 470.006 1662.92 479.753 1664.07 487.783 1662.35 490.649 1665.79 508.996 1665.79 518.172 1668.66 529.639 1668.08 539.96 1677.83 549.71 1677.83 558.882 1680.7 567.483 1707.08 556.016 1715.68 540.534 1752.95 568.057 1775.89 570.352 1781.33 560.021 1782.2 561.177 1797.68 571.498 1809.72 572.072 1816.61 565.192 1825.21 562.897 1826.35 540.534 1833.23 538.24 1842.41 527.918 1848.14 537.669 1856.17 544.549 1859.04 537.669 1861.91 519.318 1873.38 506.13 1886.56 515.877 1892.3 511.291 1902.62 512.437 1904.34 532.508 1908.35 538.814 1914.66 553.15 1915.24 565.763 1908.35 572.643 1914.09 582.394 1926.13 575.513 1938.75 576.659 1941.61 582.394 1942.76 590.995 1929.57 600.741 1928.43 607.622 1932.44 617.943 1924.99 627.69 1919.25 634.57 1908.93 635.145 1894.59 655.213 1885.99 651.772 1885.99 651.772 1880.26 638.011 1859.04 636.291 1849.29 649.481 1841.84 650.052 1833.23 642.601 1822.34 649.481 1812.59 626.544 1808 620.238 1799.4 625.97 1789.08 629.984 1785.07 617.368 1791.95 611.637 1786.79 595.006 1765 586.405 1762.7 604.756 1755.25 609.917 1756.4 623.678 1769.58 636.865 1769.58 639.16 1750.08 676.43 1743.2 686.176 1729.44 701.658 1745.5 713.699 1764.85 724.165 1785.07 725.455 1790.23 725.025 1799.69 738.357 1790.66 736.207 1776.46 736.636 1772.59 747.388 1769.58 755.989 1759.26 746.528 1753.67 747.818 1741.2 746.528 1735.18 743.517 1727 746.098 1719.26 755.989 1725.28 765.45 1718.4 782.222 1717.11 792.543 1717.54 801.574 1731.31 800.284 1726.57 811.895 1733.03 822.646 1746.79 811.895 1757.54 797.703 1773.02 797.703 1779.04 789.532 1778.61 803.724 1784.64 807.165 1779.04 815.336 1760.98 817.056 1761.84 826.947 1761.84 835.978 1761.41 850.169 1752.38 858.77 1752.38 866.511 1776.03 870.382 1779.9 876.403 1773.88 882.853 1792.38 888.444 1797.11 907.366 1820.33 921.128 1825.49 934.029 1829.36 934.029 1864.2 916.397 1880.97 921.988 1903.34 912.096 1914.52 897.475 1923.98 897.475 1948.07 907.366 1959.25 921.988 1973.87 923.278 1990.21 937.469 1994.94 930.588 2003.98 913.817 2024.19 913.817 2037.09 902.205 2031.93 895.755 2032.79 882.423 2049.13 879.843 2062.04 869.522 2062.04 856.62 2086.12 851.89 2099.31 855.33 2107.91 859.916 2110.78 843.289 2118.23 841.568 2125.69 844.434 2125.11 835.262 2137.16 831.247 2136.01 798.563 2161.24 811.18 2181.31 778.496 2187.05 750.973 2192.21 714.274 2191.06 685.031 2209.98 648.332 2205.4 626.544 2189.34 615.077 2214.57 591.566 2229.48 587.554 2207.69 570.352 2193.93 564.617 2166.4 564.617 2123.97 536.52 2102.75 546.841 2093 531.933Z" stroke="#FFFFFF" stroke-width="3.4375" stroke-miterlimit="8" fill="#B9B9B9" fill-rule="evenodd"/><path d="M2873.02 762.803 2874.17 757.073 2871.31 750.199 2881.04 744.469 2865 718.69 2850.68 704.37 2839.79 699.788 2831.2 674.583 2835.21 667.134 2807.14 648.229 2805.42 629.324 2793.39 619.012 2784.22 602.971 2768.75 581.773 2776.2 573.18 2771.04 561.724 2748.12 544.537 2740.68 530.214C2740.68 530.214 2745.26 514.173 2745.83 511.883 2746.41 509.594 2702.86 469.488 2702.86 469.488L2697.13 469.488 2698.28 459.176 2666.77 425.378 2648.43 404.18 2646.71 389.287 2639.27 385.849 2620.36 358.351 2615.78 348.039 2604.31 336.009 2603.17 323.404 2595.72 322.26 2577.96 303.355 2576.81 293.617 2552.18 264.401 2550.46 251.226 2549.89 238.621 2543.59 229.454 2547.02 226.017 2540.15 213.412 2511.5 153.26 2506.92 138.367 2482.28 103.994 2486.86 97.6936 2459.36 48.9978 2459.36 38.1119 2437.02 9.46946 2418.68 16.9178 2417.54 65.6099 2413.53 92.5342 2379.84 135.046 2379.72 134.929 2338.47 160.709 2314.41 174.458 2292.92 169.302 2275.74 165.865 2264.56 160.709 2237.06 157.272 2225.89 165.005 2214.14 170.447 2206.12 166.435 2195.81 154.405 2189.51 151.541 2175.76 160.709 2163.15 157.272 2157.42 165.29 2128.2 163.572 2120.75 162.998 2107.58 162.998 2083.51 180.758 2070.34 179.614 2064.61 172.165 2054.29 172.165 2043.41 164.146 2021.06 161.853 2015.33 168.728 2001.01 167.583 1994.13 175.602 1989.55 165.29 1974.66 165.29 1969.5 162.427 1948.3 173.884 1939.13 171.021 1933.4 164.72 1923.66 165.865 1917.93 181.906 1910.48 190.5 1910.48 212.268 1916.78 220.287 1928.82 213.986 1936.26 232.317 1943.71 244.347 1942.57 255.233 1956.89 268.408 1982.1 246.64 1989.55 251.222 1984.4 280.439 1998.72 283.876 2005.6 295.906 2010.75 290.751 2023.36 281.584 2042.26 288.458 2046.27 282.731 2052.57 288.461 2057.73 321.689 2060.59 337.157 2062.89 342.313 2092.68 344.606 2091.54 366.374 2119.04 367.518 2120.18 380.123 2127.63 389.861 2124.19 409.34 2114.45 409.34 2091.54 431.108 2094.4 447.149 2088.1 456.887 2096.69 472.355 2086.95 483.811 2085.81 496.986 2102.42 494.694 2100.7 527.922 2092.68 531.933 2102.42 546.826 2123.62 536.515 2166.02 564.587 2195.24 565.161 2207.27 570.317 2229.04 587.503 2214.14 591.514 2188.93 615.001 2204.98 626.458 2209.56 648.226 2190.65 684.891 2191.8 714.108 2186.36 755.355 2180.91 778.271 2209.56 806.054 2236.2 796.602 2253.39 800.039 2265.42 791.446 2266.28 781.134 2263.7 759.651 2281.75 746.762 2299.8 750.199 2308.39 769.104 2308.39 778.556 2338.47 772.541 2349.64 754.495 2365.97 764.807 2380.58 750.199 2385.74 747.621 2400.35 756.5 2410.09 767.385 2431.29 759.366 2437.59 761.085 2438.74 769.104 2412.38 790.872 2421.55 806.34 2442.75 797.747 2462.23 797.747 2476.55 818.944 2497.75 818.37 2514.94 814.933 2542.44 831.545 2563.64 828.682 2580.83 842.431 2606.03 853.887 2622.65 858.469 2619.21 847.013 2626.09 838.994 2634.68 828.108 2658.17 841.857 2671.92 845.868 2688.54 843.576 2696.56 821.808 2711.46 830.401 2721.77 826.963 2741.25 832.119 2754.43 834.412 2756.72 826.393 2766.46 818.374 2779.06 821.237 2810 847.016 2828.34 845.872 2827.19 827.537 2847.24 808.059 2859.85 806.914 2872.45 792.591 2884.48 792.591 2873.02 762.803Z" stroke="#FFFFFF" stroke-width="3.4375" stroke-miterlimit="8" fill="#B9B9B9" fill-rule="evenodd"/><path d="M2564.3 828.481 2543.1 831.348 2515.61 814.717 2502.01 817.442 2477.23 818.733 2462.91 797.511 2443.44 797.511 2422.24 806.114 2413.08 790.629 2439.43 768.836 2438.28 760.808 2430.69 759.373 2410.79 767.116 2401.05 756.218 2386.44 747.33 2381.29 749.911 2366.68 764.535 2350.36 754.212 2339.19 772.278 2309.11 778.3 2309.11 768.836 2300.52 749.911 2282.48 746.469 2264.44 759.373 2266.58 779.16 2266.15 789.913 2266.15 791.204 2254.12 799.806 2236.94 796.365 2210.31 805.828 2181.67 778.014 2162.62 808.409 2161.76 809.699 2136.41 798.086 2137.27 829.486 2125.53 834.792 2126.1 843.97 2118.66 841.1 2111.21 842.82 2108.06 857.875 2100.75 854.434 2086.58 851.423 2062.52 856.155 2062.52 869.059 2049.63 879.382 2033.31 881.963 2032.45 895.297 2037.6 901.749 2026.44 912.788 2004.53 913.363 1990.78 937.021 1999.51 943.758 2002.38 956.948 2012.11 959.814 2012.69 975.874 2030.45 983.902 2041.9 993.08 2040.76 1002.83 2048.2 1009.14C2048.2 1009.14 2047.08 1013.34 2047 1015.68L2046.63 1015.74 2037.61 1019.18 2029.02 1014.02 2017.84 1013.15 2009.25 1017.46 2010.11 1026.49 2000.66 1031.65 1998.51 1041.97 1990.78 1046.28 1991.05 1047.42 1992.35 1047.38 1993.81 1053.59 1998.08 1053.59 1997.93 1054.69 1999.65 1054.69 1997.93 1068.03 1988.48 1074.48 1992.02 1082.97 1995.32 1087.83 1999.65 1092.98 1999.65 1106.74 2006.57 1109.56 2009.67 1110.37 2010.36 1111.11 2011.25 1111.47 2022.42 1123.52 2031.01 1120.37 2045.47 1125.24 2026.03 1131.26 2021.56 1139.43 2027.57 1148.47 2031.88 1150.93 2032.01 1150.8 2032.94 1151.54 2033.59 1151.91 2033.51 1151.99 2040.18 1157.25 2040.61 1173.6 2056.5 1176.61 2061.66 1180.05 2069.82 1168.01 2074.97 1161.99 2078.41 1174.03 2082.71 1177.9 2079.71 1188.65 2087.01 1202.42 2091.31 1193.81 2102.62 1196.68 2104.34 1202.42 2110.07 1205.28 2103.76 1209.3 2095.17 1212.16 2093.45 1231.09 2083.72 1239.12 2080.85 1255.18 2083.72 1267.22 2079.71 1278.12 2080.28 1293.03 2092.31 1290.16 2098.04 1287.87 2105.49 1299.34 2119.81 1298.19 2125.54 1304.5 2127.83 1322.28 2128.4 1336.04 2123.25 1348.09 2135.28 1359.56 2143.87 1379.63 2154.75 1393.97 2165.63 1384.79 2170.78 1392.25 2177.66 1400.85 2195.41 1405.44 2199.42 1413.47 2225.2 1405.44 2234.36 1402 2247.54 1408.31 2263 1391.1 2285.34 1383.65 2287.63 1364.72 2290.5 1352.68 2300.81 1337.76 2296.23 1327.44 2292.79 1313.11 2303.1 1311.39 2318.57 1315.97 2329.45 1314.83 2312.84 1291.31 2320.86 1281.56 2313.41 1274.68 2298.52 1274.1 2289.35 1282.71 2271.02 1272.96C2271.02 1272.96 2261.28 1260.91 2259.57 1258.62 2257.85 1256.32 2249.83 1272.38 2249.83 1272.38L2238.37 1270.66 2230.93 1252.89 2252.12 1228.8 2250.4 1218.48 2240.66 1205.28 2248.11 1195.53 2245.82 1188.65 2246.39 1157.11 2257.85 1150.22 2258.99 1140.48 2244.1 1124.99 2240.66 1112.37 2228.63 1112.37 2213.17 1103.77 2212.02 1094.88 2237.8 1088.43 2234.79 1080.69 2245.1 1069.07 2251.12 1076.82 2267.44 1094.02 2273.89 1069.93 2264.01 1060.04 2253.27 1050.58 2263.15 1048.86 2274.32 1040.68 2282.91 1023.48 2297.09 1032.51 2303.96 1026.49 2320.28 1038.1 2332.31 1034.66 2311.26 1013.59 2319.42 998.961 2324.58 980.034 2322.86 978.744 2331.88 980.034 2336.61 985.626 2349.5 974.443 2358.09 967.56 2380 977.884 2390.74 976.593 2390.74 958.097 2403.14 945.685 2403.2 946.054 2413.94 948.634 2436.28 974.873 2449.16 979.604 2456.9 986.917 2468.93 975.303 2482.24 976.163 2495.13 956.377 2491.7 946.914 2486.11 935.3 2492.98 915.944 2526.06 884.114 2535.08 881.102 2542.82 868.198 2550.55 853.574 2572.03 853.144 2581.48 842.246 2564.3 828.481Z" stroke="#FFFFFF" stroke-width="3.4375" stroke-miterlimit="8" fill="#B9B9B9" fill-rule="evenodd"/><path d="M2077.94 1173.71 2074.52 1161.66 2069.38 1167.69 2061.68 1178.45 2056.11 1176.29 2040.27 1173.28 2039.84 1156.93 2031.71 1150.47 2027 1155.2 2018.86 1154.34 2020.57 1168.98 2018.86 1180.6 2007.3 1193.08 1992.75 1194.37 1983.33 1205.56 1983.33 1237.84 1977.76 1248.17 1976.05 1262.81 1970.48 1268.4 1991.89 1279.16 1988.89 1290.35 2000.88 1303.7 2013.3 1317.47 2023.57 1301.97 2023.14 1283.47 2029.14 1273.57 2029.56 1271.85 2033.85 1274.86 2035.13 1295.09 2048.4 1308.43 2058.68 1316.18 2079.8 1292.79 2079.23 1277.87 2083.23 1266.97 2080.51 1253.77 2083.23 1238.85 2093.36 1229.67 2094.64 1211.87 2101.92 1210.73 2109.48 1204.99 2103.78 1202.12 2102.06 1196.38 2091.22 1194.8 2086.51 1202.12 2079.23 1189.64 2079.23 1188.35 2082.23 1177.59Z" stroke="#FFFFFF" stroke-width="3.4375" stroke-miterlimit="8" fill="#B9B9B9" fill-rule="evenodd"/><path d="M1557.48 898.5 1557.48 913.146 1565.88 920.469 1567.48 906.685 1563.88 892.469Z" stroke="#FFFFFF" stroke-width="3.4375" stroke-miterlimit="8" fill="#B9B9B9" fill-rule="evenodd"/><path d="M1587.27 1088.47 1575.58 1095.79 1566.48 1110 1574.71 1126.8 1575.58 1153.5 1573.84 1169 1584.24 1186.66 1588.57 1194.84 1603.73 1200.87 1609.79 1206.47 1621.48 1193.55 1615.85 1168.57 1604.59 1141.44 1601.13 1129.38 1605.46 1110.86 1603.29 1098.37Z" stroke="#FFFFFF" stroke-width="3.4375" stroke-miterlimit="8" fill="#B9B9B9" fill-rule="evenodd"/><path d="M1618.86 1215.47C1617.13 1215.47 1599.48 1218.39 1599.48 1218.39L1600.34 1223.8 1618.86 1226.3 1628.76 1230.47 1630.48 1226.72 1621.87 1219.22 1618.86 1215.47Z" stroke="#FFFFFF" stroke-width="3.4375" stroke-miterlimit="8" fill="#B9B9B9" fill-rule="evenodd"/><path d="M2143.48 1379.05 2134.89 1358.99 2122.87 1347.52 2128.02 1335.49 2127.45 1321.73 2125.16 1305.69 2119.43 1297.66 2106.27 1297.66 2097.68 1287.35 2081.65 1291.93 2058.74 1315.86 2049.01 1306.83 2035.13 1294.8 2033.84 1274.59 2029.11 1273.3 2023.25 1281.62 2023.54 1301.67 2013.23 1315.86 1988.75 1290.07 1991.76 1278.89 1970.29 1268.15 1975.87 1262.56 1978.02 1246.65 1978.18 1246.18 1971.44 1234.86 1959.84 1231.85 1961.35 1224.55 1957.27 1218.53 1959.56 1194.18 1953.55 1185 1956.12 1177.55 1952.69 1166.95 1942.09 1160.65 1939.23 1158.35 1933.8 1161.22 1928.07 1147.46 1938.09 1126.26 1931.07 1082.27 1935.8 1068.51 1933.65 1050.03 1924.63 1041.43 1930.65 1030.26 1946.53 1029.4 1977.02 1047.45 1990.74 1047.06 1990.48 1045.92 1996.49 1042.91 1999.06 1032.16 2009.8 1026.14 2008.94 1017.12 2017.52 1012.82 2028.69 1013.68 2038.57 1017.12 2045.86 1014.11 2047.15 1009.81 2041.14 1000.35 2041.57 992.761 2032.98 985.309 2011.94 974.563 2011.8 959.518 2002.07 955.65 1997.77 942.755 1972.01 923.411 1959.56 921.262 1947.1 907.507 1924.35 896.761 1914.9 896.761 1903.73 910.086 1903.47 911.493 1881.41 921.262 1865.95 915.245 1831.17 932.008 1827.3 933.298 1827.73 938.456 1810.55 939.316 1796.81 954.79 1792.09 951.351 1784.36 924.701 1775.77 916.964 1771.05 894.612 1739.27 883.436 1705.35 881.717 1683.02 868.821 1663.7 848.189 1644.81 846.469 1643.95 852.057 1628.06 864.952 1641.8 883.866 1644.81 904.498 1644.08 909.516 1629.78 882.146 1620.33 878.278 1607.88 871.4 1592.85 871.83 1588.98 877.418 1582.54 869.251 1575.24 880.427 1577.82 897.621 1598.43 913.525 1614.32 917.823 1614.75 928.57 1607.45 936.737 1593.28 945.333 1590.27 970.265 1581.68 954.79 1573.1 966.396 1571.38 949.632 1576.96 940.605 1568.37 930.719 1558.07 922.982 1545.62 943.614 1530.59 951.781 1534.02 939.745 1544.33 927.28 1529.73 929 1514.27 935.447 1508.26 944.044 1516.42 950.921 1512.55 969.835 1501.39 961.238 1496.66 974.563 1497.52 987.888 1486.79 1000.35 1476.48 1002.5 1488.93 1014.54 1486.36 1032.16 1499.67 1026.14 1500.1 1014.97 1515.56 1020.13 1528.01 1032.59C1528.01 1032.59 1512.12 1030.87 1510.83 1030.87 1509.55 1030.87 1493.23 1043.77 1493.23 1043.77L1486.36 1053.65 1506.11 1057.95 1521.57 1049.36 1537.89 1044.2 1546.9 1038.18 1547.76 1054.51 1559.36 1063.97 1560.21 1083.74 1557.64 1097.93 1562.36 1103.52 1572.67 1094.06 1583.83 1082.45 1581.68 1066.12 1580.4 1032.16 1584.69 1057.09 1593.28 1082.45 1603.58 1087.18 1612.17 1096.21 1623.77 1077.73 1622.48 1058.38 1631.07 1053.22 1633.64 1062.68 1633.64 1087.18 1638.37 1096.64 1628.92 1100.51 1627.2 1123.29 1640.08 1143.49 1636.22 1149.51 1636.65 1167.99 1648.67 1181.32 1646.52 1203.67 1637.51 1215.28 1660.69 1220.86 1669.28 1230.75 1665.42 1238.92 1647.38 1244.51 1665.85 1268.15 1663.7 1286.2 1658.55 1299.96 1664.56 1308.12 1664.56 1315.86 1678.73 1318.87 1658.98 1319.3 1654.68 1331.33 1646.95 1335.63 1647.38 1346.81 1656.4 1341.65 1671.43 1348.1 1681.73 1350.25 1698.48 1367.87 1707.93 1368.73 1700.2 1379.05 1706.21 1386.35 1711.79 1392.8 1716.95 1400.97 1720.38 1416.01 1737.99 1418.59 1751.3 1416.44 1763.75 1402.69 1786.51 1401.83 1804.97 1387.21 1811.32 1377.47 1812.7 1377.33 1812.27 1355.41 1820 1342.08 1836.32 1342.51 1847.05 1338.64 1854.35 1341.65 1874.53 1345.09 1887.42 1342.08 1894.29 1361.42 1897.29 1373.03 1918.33 1383.34 1928.21 1372.17 1952.26 1372.17 1961.27 1364.86 1975.44 1370.02 1978.02 1355.83 1991.76 1359.27 2009.8 1348.96 2019.24 1357.84 2026.69 1391.08 2041.57 1412.29 2045.58 1413.43 2053.02 1405.41 2066.19 1425.47 2098.25 1424.32 2101.69 1396.24 2136.04 1418.02 2141.77 1400.82 2136.04 1386.5 2143.48 1379.05Z" stroke="#FFFFFF" stroke-width="3.4375" stroke-miterlimit="8" fill="#B9B9B9" fill-rule="evenodd"/><path d="M1822.77 649.774 1832.75 643.863 1842.15 650.342 1849.42 650.701 1861.39 637.237 1880.34 638.376 1885.55 652.622 1894.6 655.47 1906.28 638.092 1908.85 635.528 1919.11 634.957 1919.4 634.103 1932.22 618.435 1928.23 608.178 1928.23 606.469 1929.37 601.341 1942.48 591.656 1941.34 583.109 1938.49 577.41 1925.95 576.271 1914.83 583.109 1908.53 573.844 1915.12 567.437 1914.55 554.05 1913.73 552.248 1914.55 552.34 1904.29 534.105 1902.58 513.592 1892.31 512.454 1891.75 513.664 1886.48 516.3 1873.29 507.469 1869.59 512.597 1869.6 512.638 1861.54 520.43 1858.68 537.523 1858.89 540.21 1856.41 544.077 1852.2 542.368 1852.2 542.371 1848.42 538.665 1843.01 528.265 1833.6 538.31 1826.12 541.086 1824.84 562.025 1817.57 565.232 1809.23 572.709 1801.75 572.281 1797.26 571.642 1781.87 561.171 1765.48 586.24 1786.79 595.146 1787.43 595.642 1791.49 611.597 1785.72 617.863 1790.42 630.827 1800.47 626.342 1809.02 620.999 1811.59 624.417Z" stroke="#FFFFFF" stroke-width="3.4375" stroke-miterlimit="8" fill="#B9B9B9" fill-rule="evenodd"/><path d="M2985.48 2266.75 2980.9 2259.88 2970.02 2251.29 2970.02 2251.29 2971.73 2239.26 2970.02 2225.52 2960.28 2224.95 2939.08 2219.22 2932.21 2202.61 2901.28 2201.47 2891.54 2210.06 2861.18 2211.2 2839.41 2218.07 2819.93 2226.66 2784.42 2226.66 2759.21 2240.41 2734.01 2252.43 2703.65 2253.58 2695.06 2263.89 2680.16 2273.62 2679.02 2284.5 2635.48 2324.59 2635.48 2353.22 2642.93 2366.96 2649.23 2377.84 2661.83 2380.71 2681.31 2401.32 2691.05 2402.47 2692.77 2391.59 2704.22 2383.57 2735.15 2385.86 2743.18 2380.14 2752.34 2384.72 2763.22 2384.72 2780.41 2386.43 2818.22 2382.42 2833.11 2387.58C2833.11 2387.58 2852.58 2367.54 2853.73 2365.82 2854.87 2364.1 2891.54 2365.82 2891.54 2365.82L2910.44 2350.36 2936.22 2347.49 2936.79 2336.04 2956.84 2308.55 2968.3 2297.1 2982.05 2283.93 2977.46 2276.49 2985.48 2266.75Z" stroke="#FFFFFF" stroke-width="3.4375" stroke-miterlimit="8" fill="#B9B9B9" fill-rule="evenodd"/><path d="M2993.4 2248.47 2998.6 2244.44 3001.48 2232.92 2991.67 2229.47 2986.48 2240.41Z" stroke="#FFFFFF" stroke-width="3.4375" stroke-miterlimit="8" fill="#B9B9B9" fill-rule="evenodd"/><path d="M2689.48 2441.95 2681.25 2436.47 2679.48 2449.25 2684.78 2450.47Z" stroke="#FFFFFF" stroke-width="3.4375" stroke-miterlimit="8" fill="#B9B9B9" fill-rule="evenodd"/><path d="M2902.99 1375.46 2923.61 1354.84 2927.9 1346.25 2912.44 1331.65 2909.86 1312.75 2901.27 1305.02 2897.83 1298.14 2902.13 1296.43 2908.14 1282.68 2902.99 1278.39 2899.55 1262.92 2900.41 1226.85 2922.75 1189.05 2923.61 1158.98 2927.9 1134.93 2929.62 1112.6 2914.16 1092.84 2913.3 1070.51 2918.17 1051.32 2935.92 1037 2937.64 1011.81 2934.78 1000.35 2937.07 991.19 2928.48 964.846 2913.01 949.384 2910.15 923.04 2913.01 901.853 2905.56 885.243 2909 873.217 2906.14 846.302 2914.16 836.567 2892.96 816.522 2884.37 792.469 2872.34 792.469 2859.74 806.787 2847.14 807.931 2827.09 827.403 2828.24 845.728 2808.76 846.302 2808.76 846.302 2778.98 821.105 2766.38 818.239 2756.64 826.259 2754.35 834.276 2721.7 826.83 2711.39 830.266 2696.5 821.676 2686.19 843.439 2671.87 845.728 2655.26 841.148 2636.35 827.977 2619.17 846.875 2621.46 857.184 2601.41 852.03 2580.79 842.292 2571.34 853.174 2549.86 853.603 2534.4 881.092 2525.38 884.099 2492.3 915.882 2485.71 933.921 2491.01 946.807 2494.45 956.256 2481.56 976.013 2468.24 975.154 2456.21 986.751 2448.48 979.449 2435.59 974.725 2413.25 948.525 2402.51 945.948 2390.63 956.256 2390.05 974.581 2380.89 977.446 2357.41 967.423 2335.93 985.462 2331.2 979.879 2324.18 978.59 2319.6 996.915 2310.58 1013.38 2331.63 1034.43 2319.6 1037.86 2303.28 1026.27 2296.4 1032.28 2282.23 1023.26 2273.64 1040.44 2262.47 1048.6 2254.3 1049.6 2273.21 1069.65 2266.76 1093.7 2248 1073.66 2244.42 1068.79 2234.11 1080.38 2237.12 1088.12 2208.48 1094.27 2212.49 1103.43 2227.95 1112.02 2239.98 1112.02 2243.42 1124.62 2256.6 1140.66 2257.17 1149.82 2245.71 1156.69 2245.14 1188.19 2248.58 1195.64 2239.98 1204.8 2249.72 1217.97 2250.87 1230 2231.4 1251.76 2237.69 1270.08 2249.15 1271.8 2258.89 1258.06 2270.34 1272.37 2288.67 1282.11 2297.84 1273.52 2312.73 1274.09 2320.18 1280.96 2313.87 1288.98 2328.77 1314.18 2317.88 1315.32 2302.99 1309.6 2292.11 1312.46 2295.54 1326.78 2300.13 1337.09 2289.82 1351.98 2284.66 1382.9 2262.32 1390.34 2248 1405.81 2248.58 1418.98 2265.18 1444.75 2252.01 1454.49 2253.16 1473.96 2271.49 1480.26 2275.5 1495.72 2296.69 1494.57 2309.29 1507.17 2332.2 1502.59 2353.97 1511.18 2363.14 1531.22 2373.45 1536.38 2386.04 1554.13 2394.07 1577.61 2373.45 1592.5 2372.3 1599.37 2387.76 1603.38 2392.35 1608.53 2405.52 1610.83 2415.26 1603.95 2442.18 1602.81 2457.65 1610.25 2468.53 1625.71 2479.98 1624.57 2479.98 1607.96 2463.37 1592.5 2461.08 1576.47 2492.58 1579.9 2494.88 1562.15 2474.25 1545.54 2479.41 1535.81 2487.43 1517.48 2509.77 1515.76 2512.06 1507.17 2489.15 1495.72 2472.54 1499.73 2472.54 1477.39 2480.55 1460.21 2498.31 1444.75 2506.9 1448.76 2508.05 1466.51 2522.94 1471.09 2530.96 1456.78 2533.82 1442.46 2530.39 1429.86 2534.97 1425.28 2543.56 1431.01 2564.18 1420.7 2576.78 1405.24 2607.14 1405.23 2620.32 1408.96 2624.61 1420.98 2626.33 1451.91 2634.92 1457.92 2634.92 1483.69 2622.89 1490.56 2617.74 1503.45 2617.74 1519.77 2606.57 1528.36 2610.01 1539.53 2605.71 1548.98 2605.71 1548.98 2598.84 1565.3 2574.78 1573.89 2576.5 1558.43 2551.58 1557.57 2536.12 1569.59 2533.54 1584.2 2536.12 1597.08 2542.99 1615.12 2574.78 1640.89 2593.68 1632.3 2607.43 1634.88 2625.47 1640.89 2650.39 1643.47 2659.84 1630.58 2678.74 1629.73 2687.33 1611.69 2708.81 1603.95 2723.42 1609.97 2735.45 1621.99 2747.47 1610.83 2765.52 1603.95 2765.52 1601.38 2780.12 1603.95 2769.81 1591.93 2780.98 1569.59 2797.31 1567.02 2807.62 1558.43 2811.91 1561.86 2835.11 1561 2857.45 1567.02 2859.17 1591.07 2874.63 1595.36 2899.55 1579.04 2934.78 1593.65 2949.38 1577.33 2948.52 1567.88 2954.54 1547.26 2956.26 1517.19 2965.71 1506.03 2963.99 1496.58 2970 1487.99 2970.86 1466.51 2963.99 1442.46 2977.74 1433.87 2982.03 1414.97 2991.48 1392.64 2987.19 1366.87 2980.31 1359.99 2960.55 1390.06 2949.38 1397.79 2939.93 1411.53 2921.89 1402.09 2914.16 1390.92Z" stroke="#FFFFFF" stroke-width="3.4375" stroke-miterlimit="8" fill="#B9B9B9" fill-rule="evenodd"/><path d="M2973.24 1250.18 2973.24 1257.1 3000.81 1267.47 3003.39 1260.55 3017.17 1251.05 3018.04 1230.3 3021.48 1217.33 3010.28 1216.47 3002.53 1221.66 2989.61 1230.3 2974.96 1231.16 2965.48 1232.89 2969.79 1241.54Z" stroke="#FFFFFF" stroke-width="3.4375" stroke-miterlimit="8" fill="#B9B9B9" fill-rule="evenodd"/><path d="M3054.11 1270.55 3058.41 1261.96 3065.29 1265.4 3060.99 1273.99Z" stroke="#FFFFFF" stroke-width="3.4375" stroke-miterlimit="8" fill="#B9B9B9" fill-rule="evenodd"/><path d="M2544.04 1431.32 2535.44 1425.58 2530.85 1430.17 2534.29 1442.81 2531.43 1457.17 2523.4 1471.53 2508.49 1466.93 2507.35 1449.13 2498.75 1445.11 2482.69 1458.89 2472.95 1475.55 2472.95 1500.25 2489.57 1496.23 2512.51 1507.71 2510.79 1514.61 2487.85 1518.05 2474.67 1546.2 2495.31 1562.86 2493.01 1580.67 2461.48 1577.22 2463.77 1593.3 2479.25 1608.81 2480.4 1625.47 2503.33 1612.26 2527.41 1611.68 2530.85 1592.73 2534.01 1584.97 2536.59 1570.33 2552.06 1558.26 2577 1559.13 2575.28 1574.63 2600.8 1565.73 2606.24 1549.65 2610.54 1540.17 2607.1 1528.97 2618.28 1520.35 2616.85 1504.27 2625.45 1489.91 2634.05 1484.17 2635.48 1458.32 2626.88 1452.29 2625.16 1421.27 2620.86 1409.21 2607.68 1405.47 2577.29 1405.47 2565.82 1419.83 2564.68 1420.98Z" stroke="#FFFFFF" stroke-width="3.4375" stroke-miterlimit="8" fill="#B9B9B9" fill-rule="evenodd"/><path d="M2835.33 1561.05 2812.16 1561.91 2807.87 1558.47 2797.57 1567.08 2781.26 1569.66 2770.1 1592.03 2778.26 1603.65 2765.81 1604.08 2747.79 1610.97 2755.08 1621.72 2752.51 1634.63 2734.48 1644.96 2734.48 1654.86 2744.78 1663.46 2749.93 1668.63 2772.25 1671.64 2792.42 1686.27 2813.45 1714.67 2832.76 1713.38 2842.63 1726.29 2835.76 1739.2 2853.79 1741.78 2861.94 1738.77 2870.52 1746.08 2871.81 1765.88 2878.25 1771.47 2894.56 1758.13 2903.57 1755.98 2904.85 1752.11 2901.85 1737.48 2904.85 1728.44 2902.71 1718.97 2907 1711.23 2900.13 1698.32 2913.44 1690.14 2912.58 1678.52 2913.44 1670.35 2916.35 1662.02 2921.16 1665.61 2917.73 1674.22 2923.74 1677.23 2925.02 1691.86 2935.32 1683.69 2940.9 1673.36 2941.33 1654 2945.2 1644.1 2940.47 1638.08 2945.62 1631.19 2946.48 1619.57 2939.19 1609.24 2934.9 1593.75 2899.71 1579.12 2874.81 1595.48 2859.37 1589.88 2857.65 1567.08Z" stroke="#FFFFFF" stroke-width="3.4375" stroke-miterlimit="8" fill="#B9B9B9" fill-rule="evenodd"/><path d="M2600.48 1962.63 2606.79 1950.05 2607.94 1938.04 2625.72 1937.47 2625.72 1946.05 2614.82 1955.2 2616.54 1971.21 2626.29 1976.36 2627.44 1995.23 2619.98 2011.82 2626.87 2022.68 2637.76 2012.96 2638.91 2023.83 2632.6 2031.26 2634.32 2037.55 2623.43 2038.12 2620.56 2047.85 2632.6 2052.99 2639.48 2065 2629.73 2064.43 2621.13 2056.42 2603.35 2057 2604.5 2067.29 2595.32 2073.58 2596.47 2089.02 2609.66 2094.17 2604.5 2101.61 2594.18 2098.17 2587.29 2099.32 2592.46 2107.32 2572.38 2112.47 2566.65 2109.04 2573.53 2098.17 2571.23 2094.74 2566.07 2087.88 2567.79 2077.59 2556.89 2079.87 2556.32 2070.15 2567.79 2061 2574.1 2049.56 2564.35 2035.26 2553.45 2042.13 2539.69 2047.27 2535.68 2052.42 2532.81 2043.27 2523.63 2036.41 2522.48 2019.25 2535.1 2004.95 2543.13 1997.52 2559.19 2006.67 2571.23 1999.81 2582.13 2008.39 2571.23 1988.94 2579.84 1972.93 2590.16 1973.5Z" stroke="#FFFFFF" stroke-width="3.4375" stroke-miterlimit="8" fill="#B9B9B9" fill-rule="evenodd"/><path d="M2542.77 1969.59 2536.48 1974.08 2537.05 1987.55C2537.05 1987.55 2548.48 1991.47 2548.48 1988.11 2548.48 1984.74 2548.48 1978.01 2548.48 1978.01L2544.48 1977.45 2542.77 1968.47" stroke="#FFFFFF" stroke-width="3.4375" stroke-miterlimit="8" fill="#B9B9B9" fill-rule="evenodd"/><path d="M2276.28 2004.06 2270.02 1992.04 2256.36 1987.47 2243.27 1995.48C2243.27 1995.48 2245.54 2006.92 2243.83 2005.77 2242.13 2004.63 2234.16 2005.2 2234.16 2005.2L2231.88 2023.51 2224.48 2032.09 2234.16 2053.83 2241.56 2074.99 2240.99 2087.58 2237.57 2093.3 2252.94 2104.74 2267.17 2103.59 2267.74 2087.01 2279.13 2079.57 2288.8 2082.43 2288.8 2104.17 2299.05 2115.61 2313.85 2108.74 2323.53 2118.47 2330.93 2113.89 2325.8 2105.31 2335.48 2092.73 2333.2 2076.71 2334.34 2062.98 2328.65 2053.26 2317.84 2049.82 2300.19 2053.83 2286.53 2062.41 2282.54 2052.11 2273.44 2040.67 2267.17 2020.08 2276.85 2010.35 2276.28 2004.06Z" stroke="#FFFFFF" stroke-width="3.4375" stroke-miterlimit="8" fill="#B9B9B9" fill-rule="evenodd"/><path d="M2338.74 2022.89 2324.82 2013.12 2318.43 2028.07 2316.69 2015.42 2320.76 2008.52 2321.92 2000.47 2306.25 2003.34 2293.48 2022.32 2298.7 2042.44 2326.56 2042.44 2340.48 2046.47 2335.84 2033.82Z" stroke="#FFFFFF" stroke-width="3.4375" stroke-miterlimit="8" fill="#B9B9B9" fill-rule="evenodd"/><path d="M2510.79 2023.72 2516.48 2017.88 2507.94 2011.47 2495.99 2023.72 2483.47 2031.3 2479.48 2041.22 2489.16 2044.13 2498.27 2046.47 2504.53 2037.72Z" stroke="#FFFFFF" stroke-width="3.4375" stroke-miterlimit="8" fill="#B9B9B9" fill-rule="evenodd"/><path d="M2460.48 2042.91 2463.94 2057.82 2483.51 2078.47 2498.48 2060.12 2481.79 2053.81 2469.7 2039.47Z" stroke="#FFFFFF" stroke-width="3.4375" stroke-miterlimit="8" fill="#B9B9B9" fill-rule="evenodd"/><path d="M2528.48 2077.38 2522.32 2059.47 2514.48 2067.56 2521.2 2085.47Z" stroke="#FFFFFF" stroke-width="3.4375" stroke-miterlimit="8" fill="#B9B9B9" fill-rule="evenodd"/><path d="M2509.48 2113.47 2519.48 2104.64 2514.78 2097.47Z" stroke="#FFFFFF" stroke-width="3.4375" stroke-miterlimit="8" fill="#B9B9B9" fill-rule="evenodd"/><path d="M2832.61 1713.3 2813.3 1714.59 2791.41 1684.08 2774.25 1672.04 2751.93 1669.47 2739.91 1660.01 2734.33 1654.85 2734.33 1644.97 2752.36 1634.65 2754.93 1621.76 2747.64 1611.02 2735.62 1622.19 2723.6 1610.16 2709.01 1604.14 2687.55 1611.88 2676.4 1629.93 2659.23 1633.36 2650.65 1643.68 2625.75 1641.1 2594 1632.51 2575.11 1641.1 2540.78 1611.02 2536.49 1597.26 2533.05 1586.95 2530.76 1592.11 2527.33 1611.02 2500.44 1611.88 2480.41 1624.77 2468.96 1625.91 2458.09 1610.44 2442.64 1602.99 2415.75 1604.14 2406.02 1611.02 2392.86 1608.72 2388.28 1603.57 2375.98 1598.98 2373.98 1592.68 2394.58 1577.78 2386.56 1554.28 2373.98 1536.52 2363.68 1531.36 2354.52 1511.31 2344.22 1507.01 2335.64 1501.85 2309.89 1507.29 2295.3 1494.98 2276.12 1495.83 2272.12 1480.36 2253.81 1474.06 2253.24 1467.47 2242.94 1470.05 2236.07 1485.52 2212.04 1501.85 2189.72 1504.43 2183.71 1524.2 2161.4 1543.11 2159.68 1554.28 2156.25 1576.63 2145.95 1585.23 2139.08 1604.14 2145.95 1623.91 2137.36 1632.51 2133.93 1643.68 2123.63 1651.42 2138.22 1666.89 2151.1 1690.1 2145.09 1700.41 2148.52 1714.16 2161.4 1719.32 2155.39 1734.79 2137.36 1751.12 2135.65 1765.74 2142.51 1776.91 2137.65 1781.21 2120.48 1796.68 2126.78 1807.57 2143.37 1829.34 2141.08 1857.42 2170.27 1883.78 2172.56 1904.41 2189.72 1918.16 2194.3 1927.33 2203.46 1931.35 2208.03 1950.26 2214.33 1949.68 2212.04 1962.86 2204.03 1970.89 2210.32 1984.64 2229.78 1987.5 2239.51 1981.2 2243.51 1986.93 2263.54 1981.77 2272.7 1965.73 2272.7 1949.68 2276.7 1948.18 2276.7 1955.41 2289.29 1968.59 2294.44 1962.86 2308.74 1964.01 2315.61 1950.26 2300.16 1938.79 2307.6 1932.49 2315.61 1939.94 2319.61 1920.46 2333.35 1908.42 2325.91 1931.92 2324.19 1946.82 2331.06 1950.26 2321.91 1961.72 2328.2 1966.87 2320.76 1980.63 2333.92 1994.95 2355.09 2004.69 2355.09 2004.69 2367.11 2009.28 2376.26 2009.28 2398.58 2009.28 2399.73 1989.8 2422.04 1988.65 2428.34 2004.69 2438.64 2005.84 2444.93 1986.93 2453.51 1979.48 2461.53 1988.65 2467.25 2004.69 2447.22 2006.41 2446.65 2015.01 2468.96 2024.18 2476.4 2017.87 2484.41 2026.47 2494.71 2012.72 2498.15 1996.1 2497.58 1982.35 2505.01 1972.61 2503.87 1966.3 2490.14 1961.14 2490.71 1956.56 2502.15 1958.85 2521.61 1953.7 2522.18 1939.94 2509.59 1930.77 2515.31 1919.31 2509.02 1921.6 2498.72 1929.63 2488.99 1930.2 2481.55 1937.07 2467.82 1950.83 2472.97 1937.07 2479.84 1925.04 2497.58 1920.46 2506.45 1917.88 2516.32 1911 2506.02 1901.55 2510.74 1896.82 2525.33 1901.98 2531.77 1899.4 2540.35 1892.95 2550.65 1904.56 2560.09 1907.13 2555.37 1917.88 2565.67 1919.17 2562.67 1925.19 2581.12 1922.18 2584.55 1912.72 2578.12 1907.56 2576.83 1901.55 2568.25 1882.64 2570.39 1874.04 2563.52 1864.59 2557.95 1854.7 2567.82 1845.25 2573.4 1858.57 2580.69 1872.32 2580.69 1880.06 2588.85 1873.61 2600 1879.63 2609.02 1873.61 2613.74 1887.36 2609.02 1898.54 2622.75 1904.13 2638.63 1903.27 2654.08 1895.53 2655.37 1907.13 2669.53 1903.7 2678.54 1895.96 2676.82 1886.08 2662.23 1876.62 2659.23 1868.45 2660.95 1868.88 2672.96 1867.17 2678.97 1859.43 2690.99 1865.45 2690.13 1853.41C2690.13 1853.41 2694.42 1837.94 2697 1837.94 2699.57 1837.94 2715.02 1837.08 2715.02 1837.08L2723.6 1828.48 2747.64 1819.03 2758.79 1801.84 2799.99 1784.65 2805.15 1751.98 2812.01 1751.12 2822.31 1758.86 2832.61 1751.98 2835.62 1739.09 2842.48 1726.2 2832.61 1713.3Z" stroke="#FFFFFF" stroke-width="3.4375" stroke-miterlimit="8" fill="#B9B9B9" fill-rule="evenodd"/><path d="M2403.21 2039.82 2405.48 2033.47 2384.48 2033.47 2395.84 2048.47Z" stroke="#FFFFFF" stroke-width="3.4375" stroke-miterlimit="8" fill="#B9B9B9" fill-rule="evenodd"/><path d="M2429.48 2060.04 2415.77 2047.47 2401.48 2050.33 2419.2 2067.47Z" stroke="#FFFFFF" stroke-width="3.4375" stroke-miterlimit="8" fill="#B9B9B9" fill-rule="evenodd"/><path d="M2430.48 2157.77 2422.48 2146.47 2414.48 2147.6 2416.2 2159.47Z" stroke="#FFFFFF" stroke-width="3.4375" stroke-miterlimit="8" fill="#B9B9B9" fill-rule="evenodd"/><path d="M2399.48 2118.97 2389.1 2111.47 2384.48 2119.55 2396.02 2126.47Z" stroke="#FFFFFF" stroke-width="3.4375" stroke-miterlimit="8" fill="#B9B9B9" fill-rule="evenodd"/><path d="M2677.64 1942.24 2682 1933.27 2685.48 1923.01 2682 1917.03 2675.47 1914.47 2658.48 1925.58 2664.14 1928.99 2666.32 1939.25 2671.98 1946.51 2674.59 1958.47 2679.39 1951.21Z" stroke="#FFFFFF" stroke-width="3.4375" stroke-miterlimit="8" fill="#B9B9B9" fill-rule="evenodd"/><path d="M2698.48 1918.16 2696.77 1912.47 2686.48 1913.78 2689.91 1919.47Z" stroke="#FFFFFF" stroke-width="3.4375" stroke-miterlimit="8" fill="#B9B9B9" fill-rule="evenodd"/><path d="M2813.64 1751.92 2805.48 1752.35 2800.33 1784.97 2770.27 1797.84 2759.11 1802.13 2755.67 1799.56 2747.94 1819.3 2723.89 1828.75 2715.31 1837.33 2697.27 1838.19 2690.4 1853.64 2691.26 1865.66 2679.24 1859.65 2673.22 1867.37 2659.48 1868.66 2662.49 1876.82 2677.52 1888.41 2678.81 1896.13 2670.65 1902.57 2678.81 1907.72 2699.42 1907.29 2703.28 1889.69 2708.44 1886.69 2708.86 1906 2714.88 1904.29 2721.32 1891.41 2728.19 1888.84 2728.19 1888.84 2729.48 1912.87 2735.06 1930.47 2742.79 1919.74 2747.94 1927.46 2747.94 1917.16 2745.79 1909.44 2747.51 1903.86 2752.66 1903.17 2752.24 1914.16 2758.68 1922.31 2758.68 1907.72 2764.69 1900.42 2764.59 1900.34 2768.98 1894.84 2768.98 1888.84 2773.71 1887.12 2778 1880.25 2781.44 1885.83 2784.01 1893.13 2792.17 1890.12 2794.75 1894.42 2802.48 1895.27 2806.34 1881.54 2802.48 1874.24 2804.62 1868.66 2815.36 1866.95 2820.51 1863.51 2823.52 1866.52 2832.96 1866.52 2837.26 1853.64 2847.99 1845.91 2847.99 1845.91 2849.28 1829.17 2854.86 1827.89 2857.87 1820.16 2862.16 1810.72 2855.72 1805.57 2860.45 1801.28 2867.32 1791.4 2862.16 1784.97 2868.61 1773.81 2876.34 1777.67 2878.48 1771.66 2872.04 1764.36 2870.75 1746.34 2861.31 1740.33 2854.01 1742.04 2837.26 1739.47 2832.96 1752.35 2822.66 1759.21Z" stroke="#FFFFFF" stroke-width="3.4375" stroke-miterlimit="8" fill="#B9B9B9" fill-rule="evenodd"/><path d="M2781.34 1900.47 2769.16 1901.31 2767.48 1908.87 2783.02 1921.47 2788.48 1918.53 2785.12 1908.45 2784.7 1902.99Z" stroke="#FFFFFF" stroke-width="3.4375" stroke-miterlimit="8" fill="#B9B9B9" fill-rule="evenodd"/><path d="M2266.48 1444.19 2248.72 1418.98 2247 1407.52 2233.82 1401.22 2198.86 1412.68 2194.85 1404.65 2175.37 1400.64 2165.05 1384.03 2155.88 1393.2 2143.27 1378.87 2135.82 1386.32 2141.56 1400.64 2135.82 1416.11 2101.44 1396.06 2098.14 1423.02 2065.91 1425.28 2052.73 1405.23 2045.28 1413.25 2041.27 1412.11 2030.45 1399.81 2030.95 1398.35 2026.37 1390.9 2018.92 1357.66 2007.46 1348.5 1991.41 1361.1 1977.66 1355.66 1975.08 1369.84 1959.32 1365.69 1951.87 1371.99 1927.8 1371.99 1918.63 1381.73 1896.86 1372.85 1885.4 1341.05 1874.08 1344.92 1856.17 1342.19 1846.57 1338.47 1835.83 1342.34 1819.49 1341.91 1811.76 1355.23 1810.9 1377.15 1806.89 1385.74 1785.97 1401.65 1763.19 1402.51 1750.73 1416.26 1738.69 1417.83 1727.8 1416.69 1723.79 1424.71 1677.95 1430.44 1672.22 1436.74 1665.91 1433.31 1667.63 1443.05 1685.97 1449.93 1695.71 1455.65 1695.71 1479.15 1719.78 1480.87 1727.8 1478 1739.83 1479.15 1743.85 1483.16 1750.72 1480.87 1764.48 1477.43 1781.67 1466.54 1796.28 1467.83 1776.08 1478.15 1768.35 1492.76 1753.73 1488.89 1743.42 1491.47 1730.52 1505.65 1764.91 1525.42 1767.06 1529.72 1761.9 1533.16 1760.61 1539.17 1736.97 1530.15 1700.87 1526.71 1698.29 1559.37 1675.08 1585.16 1663.05 1586.88 1626.95 1609.23 1626.09 1623.84 1652.3 1645.33 1669.5 1636.73 1703.88 1633.72 1720.21 1652.64 1719.35 1658.65 1701.3 1654.35 1687.12 1666.39 1665.63 1666.82 1639.84 1677.99 1614.48 1723.12 1640.27 1726.56 1636.83 1749.33 1645 1766.96 1653.16 1767.81C1653.16 1767.81 1654.45 1786.73 1654.88 1788.01 1655.31 1789.3 1680.67 1794.03 1680.67 1794.03L1680.24 1780.28 1690.13 1778.99 1705.17 1783.72 1717.63 1770.39 1744.28 1761.37C1744.28 1761.37 1744.28 1748.48 1744.71 1746.76 1745.14 1745.04 1752.88 1741.17 1752.88 1741.17L1756.31 1726.99 1751.59 1718.39 1764.64 1704.49 1764.91 1705.93 1782.1 1705.5 1787.26 1694.75 1799.72 1700.34 1798.86 1705.93 1810.9 1711.94 1822.93 1719.25 1825.94 1730.85 1838.84 1744.18 1853.02 1741.6 1853.88 1731.71 1859.9 1726.99 1865.91 1712.37 1880.53 1710.65 1883.53 1724.84 1888.69 1729.14 1888.69 1739.02 1878.38 1743.32 1881.82 1751.48 1892.13 1753.63 1894.71 1775.55 1886.54 1777.7 1890.41 1788.44 1918.35 1797.04 1948.43 1772.97 1948.43 1772.97 1947.14 1785.01 1957.89 1788.87 1965.63 1775.55 1976.37 1788.01 1988.4 1788.87 2002.59 1797.47 2020.64 1785.87 2036.11 1793.6 2058.03 1763.95 2081.67 1764.81 2105.74 1780.28 2120.35 1794.89 2141.84 1776.84 2134.53 1764.38 2136.68 1751.05 2153.45 1736.01 2159.46 1718.39 2147.86 1712.8 2144.42 1700.34 2150.44 1690.03 2137.54 1666.82 2124.36 1651.63 2124.36 1651.63 2133.25 1643.61 2136.97 1631 2145.28 1623.84 2138.4 1604.07 2147.28 1584.02 2155.59 1576.56 2160.75 1543.04 2174.22 1531.29 2172.59 1530.1 2183.11 1524.13 2189.12 1504.36 2211.47 1501.78 2235.54 1485.45 2242.42 1469.98 2252.73 1467.4 2252.16 1454.51 2266.48 1444.19Z" stroke="#FFFFFF" stroke-width="3.4375" stroke-miterlimit="8" fill="#B9B9B9" fill-rule="evenodd"/><path d="M1611.48 1522.07 1602.31 1509.47 1600.48 1527.47Z" stroke="#FFFFFF" stroke-width="3.4375" stroke-miterlimit="8" fill="#B9B9B9" fill-rule="evenodd"/><path d="M1869.33 1873.33 1874.48 1868.46 1866.75 1858.43 1855.88 1858.72 1849 1852.13 1842.99 1836.95 1833.83 1823.2 1826.38 1817.47 1814.93 1824.34 1805.2 1824.63 1796.33 1833.8 1778.86 1841.53 1757.67 1831.5 1756.81 1822.34 1749.08 1822.34 1743.07 1843.54 1727.9 1845.54 1714.44 1858.43 1719.59 1867.89 1711.86 1873.9C1711.86 1873.9 1711.01 1893.09 1711.86 1894.24 1712.72 1895.39 1721.89 1901.69 1721.89 1901.69L1753.09 1901.11 1763.68 1914.29 1761.68 1922.03 1767.69 1926.61 1786.59 1927.47 1797.75 1919.16 1815.79 1914.58 1829.25 1908.56 1842.41 1919.45 1845.85 1914.29 1858.16 1908.56 1865.03 1898.25 1871.9 1887.36 1869.33 1880.78 1869.33 1873.33Z" stroke="#FFFFFF" stroke-width="3.4375" stroke-miterlimit="8" fill="#B9B9B9" fill-rule="evenodd"/><path d="M2204.48 2001.18 2191.65 1995.47 2183.48 2006.9 2192.23 2011.47Z" stroke="#FFFFFF" stroke-width="3.4375" stroke-miterlimit="8" fill="#B9B9B9" fill-rule="evenodd"/><path d="M2222.18 2181.47 2206.06 2179.74 2186.48 2162.43 2187.06 2149.74 2199.15 2128.97 2198.57 2111.66 2202.03 2106.47 2212.39 2113.39 2210.09 2131.85 2221.03 2142.24 2218.15 2167.05C2218.15 2167.05 2224.48 2169.93 2224.48 2171.66 2224.48 2173.39 2222.18 2181.47 2222.18 2181.47Z" stroke="#FFFFFF" stroke-width="3.4375" stroke-miterlimit="8" fill="#B9B9B9" fill-rule="evenodd"/><path d="M2209.6 2216.83 2202.14 2204.31 2189.53 2201.47 2177.48 2212.28 2189.53 2215.13 2198.13 2225.37 2211.32 2234.47 2216.48 2228.78 2207.3 2220.81Z" stroke="#FFFFFF" stroke-width="3.4375" stroke-miterlimit="8" fill="#B9B9B9" fill-rule="evenodd"/><path d="M2153.45 2199.47 2166.48 2197.17 2166.48 2189.68 2156.28 2180.47 2149.48 2187.95Z" stroke="#FFFFFF" stroke-width="3.4375" stroke-miterlimit="8" fill="#B9B9B9" fill-rule="evenodd"/><path d="M1575.91 1874.47 1562.3 1884.7 1546.98 1880.15C1546.98 1880.15 1532.23 1881.86 1532.23 1883.56 1532.23 1885.27 1531.09 1899.47 1531.09 1899.47L1529.96 1905.72 1507.26 1900.04 1496.48 1906.86 1501.59 1919.92 1520.88 1924.47 1522.58 1938.11 1525.42 1949.47 1542.44 1940.38 1539.6 1927.88 1548.11 1927.31 1553.79 1936.97 1562.3 1926.74 1562.3 1911.4 1567.97 1911.4 1573.08 1897.76 1576.48 1886.4 1575.91 1874.47Z" stroke="#FFFFFF" stroke-width="3.4375" stroke-miterlimit="8" fill="#B9B9B9" fill-rule="evenodd"/><path d="M1590.48 1910.47 1587.01 1920.23 1581.8 1912.19 1573.11 1915.06 1568.48 1928.28 1578.9 1937.47 1590.48 1931.72 1601.48 1930.58 1601.48 1917.94Z" stroke="#FFFFFF" stroke-width="3.4375" stroke-miterlimit="8" fill="#B9B9B9" fill-rule="evenodd"/><path d="M1573.57 1971.39C1571.85 1971.39 1563.82 1969.05 1563.82 1969.05L1556.93 1968.47 1553.48 1979.58 1571.28 2000.04 1574.15 2006.47C1574.15 2006.47 1584.48 1995.36 1584.48 1993.61 1584.48 1991.86 1584.48 1978.41 1584.48 1978.41L1581.04 1968.47 1573.57 1971.39Z" stroke="#FFFFFF" stroke-width="3.4375" stroke-miterlimit="8" fill="#B9B9B9" fill-rule="evenodd"/><path d="M1956.29 2234.47 1937.91 2234.47 1923.55 2238.48C1923.55 2238.48 1913.78 2234.47 1913.21 2237.91 1912.63 2241.35 1911.48 2256.27 1911.48 2256.27L1927.57 2269.47 1955.14 2267.75 1962.04 2256.85 1965.48 2243.08 1956.29 2234.47Z" stroke="#FFFFFF" stroke-width="3.4375" stroke-miterlimit="8" fill="#B9B9B9" fill-rule="evenodd"/><path d="M2065.48 2235.47 2083.04 2233.23 2089.48 2228.75 2078.94 2221.47 2066.65 2225.39Z" stroke="#FFFFFF" stroke-width="3.4375" stroke-miterlimit="8" fill="#B9B9B9" fill-rule="evenodd"/><path d="M2074.56 2244.47 2069.48 2251.39 2091.5 2266.97 2095.45 2274.47 2104.48 2260.62 2091.5 2246.77Z" stroke="#FFFFFF" stroke-width="3.4375" stroke-miterlimit="8" fill="#B9B9B9" fill-rule="evenodd"/><path d="M1532.43 2180.47 1526.69 2192.5 1536.44 2196.5 1538.73 2209.11C1538.73 2209.11 1520.39 2210.82 1518.67 2210.82 1516.95 2210.82 1516.37 2219.99 1516.37 2219.99L1511.79 2228.01 1503.76 2222.28 1499.75 2236.03 1476.81 2251.49 1462.48 2266.39 1472.8 2286.43 1484.27 2291.59 1483.12 2299.6 1506.06 2302.47 1529.56 2293.88 1550.2 2279.56 1565.68 2270.97 1565.11 2276.69 1581.16 2257.79 1579.44 2241.75 1591.48 2234.88 1588.04 2221.71 1565.68 2202.23 1555.36 2198.8 1554.79 2192.5 1532.43 2180.47Z" stroke="#FFFFFF" stroke-width="3.4375" stroke-miterlimit="8" fill="#B9B9B9" fill-rule="evenodd"/><path d="M1440.14 2328.49 1437.29 2324.47 1426.48 2340.57 1440.14 2347.47 1459.48 2346.89 1458.91 2331.37 1449.81 2330.79Z" stroke="#FFFFFF" stroke-width="3.4375" stroke-miterlimit="8" fill="#B9B9B9" fill-rule="evenodd"/><path d="M1730.48 2339.74 1717.79 2323.76 1708.48 2319.88 1708.48 2286.63 1725.83 2284.47 1743.17 2293.11 1745.71 2309.51 1760.52 2327.65 1763.48 2341.47 1748.67 2340.61Z" stroke="#FFFFFF" stroke-width="3.4375" stroke-miterlimit="8" fill="#B9B9B9" fill-rule="evenodd"/><path d="M1802.48 2282.1 1790.88 2275.52 1795.17 2272.01 1789.16 2261.47 1777.55 2264.98 1760.78 2276.4 1756.48 2288.69 1762.5 2293.52 1771.1 2297.47 1786.58 2289.57Z" stroke="#FFFFFF" stroke-width="3.4375" stroke-miterlimit="8" fill="#B9B9B9" fill-rule="evenodd"/><path d="M1806.57 2329.61 1815.19 2327.43 1816.48 2319.57 1808.72 2313.89 1804.84 2309.09 1793.64 2309.09 1789.76 2306.47 1783.72 2312.14 1770.79 2309.96 1766.48 2321.31 1784.15 2326.99 1791.91 2327.86 1795.79 2337.47Z" stroke="#FFFFFF" stroke-width="3.4375" stroke-miterlimit="8" fill="#B9B9B9" fill-rule="evenodd"/><path d="M1823.25 2385.31 1812.01 2384.47 1802.94 2389.92 1799.48 2406.28 1809.42 2410.47 1834.48 2410.05 1832.75 2399.57 1825.41 2396.21Z" stroke="#FFFFFF" stroke-width="3.4375" stroke-miterlimit="8" fill="#B9B9B9" fill-rule="evenodd"/><path d="M1666.07 2374.47 1663.48 2388.31 1669.94 2400.42C1669.94 2400.42 1692.33 2400.85 1692.33 2399.12 1692.33 2397.39 1690.18 2391.34 1690.18 2391.34L1694.48 2386.15 1687.59 2377.06 1676.83 2375.77 1666.07 2374.47Z" stroke="#FFFFFF" stroke-width="3.4375" stroke-miterlimit="8" fill="#B9B9B9" fill-rule="evenodd"/><path d="M1665.99 2404.8 1652.38 2400.47 1644.48 2409.13 1644.92 2424.28 1658.09 2429.47 1669.51 2420.38 1680.48 2409.99Z" stroke="#FFFFFF" stroke-width="3.4375" stroke-miterlimit="8" fill="#B9B9B9" fill-rule="evenodd"/><path d="M1713.83 2402.47 1721.48 2399.86 1717.66 2396.38 1710.43 2392.47 1704.48 2401.16Z" stroke="#FFFFFF" stroke-width="3.4375" stroke-miterlimit="8" fill="#B9B9B9" fill-rule="evenodd"/><path d="M1701.48 2425.74 1708.61 2435.47 1713.22 2426.62 1714.48 2414.24 1708.19 2412.47 1704 2412.91Z" stroke="#FFFFFF" stroke-width="3.4375" stroke-miterlimit="8" fill="#B9B9B9" fill-rule="evenodd"/><path d="M1878.78 2292.75C1878.78 2292.75 1869.48 2291.45 1869.48 2294.48 1869.48 2297.51 1872.44 2308.76 1872.44 2308.76 1872.44 2308.76 1881.74 2318.28 1882.16 2320.01 1882.59 2321.74 1882.16 2334.72 1883.85 2332.13 1885.54 2329.53 1897.8 2317.85 1897.8 2317.85L1910.48 2312.22C1910.48 2312.22 1899.07 2298.37 1897.8 2298.37 1896.53 2298.37 1889.35 2306.16 1889.35 2306.16L1878.78 2292.75Z" stroke="#FFFFFF" stroke-width="3.4375" stroke-miterlimit="8" fill="#B9B9B9" fill-rule="evenodd"/><path d="M1448.46 2039.47 1463.45 2026.32 1467.48 2012.61 1458.83 2003.47 1453.07 1991.47 1449.03 2001.18 1434.04 2000.61 1421.36 2009.18 1411.55 2024.04 1403.48 2025.76 1434.62 2032.61Z" stroke="#FFFFFF" stroke-width="3.4375" stroke-miterlimit="8" fill="#B9B9B9" fill-rule="evenodd"/><path d="M1412.6 2089.49 1419.48 2068.67 1413.75 2063.47 1394.84 2077.35 1377.07 2076.19 1372.48 2103.95 1382.8 2111.47 1395.41 2105.68 1395.41 2094.7Z" stroke="#FFFFFF" stroke-width="3.4375" stroke-miterlimit="8" fill="#B9B9B9" fill-rule="evenodd"/><path d="M1423.77 2106.72 1414.05 2112.91 1402.05 2104.47 1398.05 2111.22 1381.48 2115.72 1386.05 2128.66 1405.48 2140.47 1415.2 2130.91 1425.48 2122.47Z" stroke="#FFFFFF" stroke-width="3.4375" stroke-miterlimit="8" fill="#B9B9B9" fill-rule="evenodd"/><path d="M1438.15 2155.76 1443.15 2148.96 1440.37 2140.47 1429.26 2156.33 1426.48 2170.48 1429.82 2182.94 1438.15 2187.47 1446.48 2178.41 1440.93 2168.22Z" stroke="#FFFFFF" stroke-width="3.4375" stroke-miterlimit="8" fill="#B9B9B9" fill-rule="evenodd"/><path d="M1456.27 2204.84 1465.36 2194.49 1470.48 2181.84 1463.66 2174.37 1461.39 2167.47 1452.86 2173.8 1460.25 2187.59 1447.74 2197.94 1441.48 2200.82 1448.31 2204.84 1446.03 2213.47Z" stroke="#FFFFFF" stroke-width="3.4375" stroke-miterlimit="8" fill="#B9B9B9" fill-rule="evenodd"/><path d="M1483.37 2064.82 1464.48 2067.2 1476.71 2076.12 1485.59 2081.47 1494.48 2073.14 1491.15 2059.47Z" stroke="#FFFFFF" stroke-width="3.4375" stroke-miterlimit="8" fill="#B9B9B9" fill-rule="evenodd"/><path d="M1488.69 2091.61 1478.89 2087.1 1467.36 2081.47 1464.48 2100.06 1467.36 2121.47 1482.34 2116.4 1498.48 2105.69Z" stroke="#FFFFFF" stroke-width="3.4375" stroke-miterlimit="8" fill="#B9B9B9" fill-rule="evenodd"/><path d="M1481.36 2037.14 1486.48 2029.18 1476.25 2027.47 1473.4 2033.72 1461.46 2039.41 1457.48 2047.94 1468.85 2056.47 1472.84 2046.8 1481.93 2043.96Z" stroke="#FFFFFF" stroke-width="3.4375" stroke-miterlimit="8" fill="#B9B9B9" fill-rule="evenodd"/><path d="M1482.11 2158.47 1493.61 2151.54 1496.48 2140.56 1485.56 2132.47 1473.48 2144.02Z" stroke="#FFFFFF" stroke-width="3.4375" stroke-miterlimit="8" fill="#B9B9B9" fill-rule="evenodd"/><path d="M1550.64 2035.61 1570.9 2041.33 1568.59 2050.47 1581.33 2047.61 1582.48 2035.61 1569.75 2032.18 1562.22 2030.47 1566.27 2019.61 1575.53 2016.76 1566.27 2008.18 1555.85 2002.47 1548.9 2005.33 1554.69 2014.47 1550.06 2019.04 1541.38 2026.47 1527.48 2033.33 1541.96 2039.04Z" stroke="#FFFFFF" stroke-width="3.4375" stroke-miterlimit="8" fill="#B9B9B9" fill-rule="evenodd"/><path d="M1487.48 1880.47 1466.94 1889.72 1453.81 1904.76C1453.81 1904.76 1438.4 1912.85 1439.54 1914.59 1440.68 1916.32 1447.53 1928.47 1447.53 1928.47L1466.94 1927.31 1473.79 1911.7 1474.36 1898.97 1486.91 1886.25 1487.48 1880.47Z" stroke="#FFFFFF" stroke-width="3.4375" stroke-miterlimit="8" fill="#B9B9B9" fill-rule="evenodd"/><path d="M1481.29 1946.47 1469.48 1955.13 1481.29 1957.44 1482.98 1978.23C1482.98 1978.23 1472.86 1986.31 1475.67 1986.89 1478.48 1987.47 1495.35 1987.47 1495.35 1987.47L1496.48 1972.46 1494.23 1959.75 1481.29 1946.47Z" stroke="#FFFFFF" stroke-width="3.4375" stroke-miterlimit="8" fill="#B9B9B9" fill-rule="evenodd"/><path d="M2142.8 2009.09 2162.57 2009.09 2184.91 1983.31 2191.79 1980.73 2202.67 1970.13 2210.69 1962.11 2212.98 1948.93 2206.68 1949.51 2202.1 1933.46 2192.93 1926.59 2188.35 1917.42 2171.16 1903.67 2168.87 1883.04 2139.37 1858.69 2141.95 1828.61 2127.34 1807.99 2119.6 1794.24 2105 1779.63 2080.93 1764.16 2057.3 1763.3 2035.39 1792.95 2034.71 1805.54 2033.67 1793.09 2019.92 1785.21 2003.31 1797.67 1988.99 1788.51 1975.67 1787.36 1964.93 1774.9 1957.19 1788.22 1946.45 1784.35 1947.17 1773.61 1917.67 1796.39 1904.78 1793.66 1889.74 1787.79 1885.87 1777.05 1894.04 1774.9 1891.46 1752.98 1881.15 1750.84 1877.71 1742.67 1886.45 1738.09 1888.02 1728.49 1882.86 1724.19 1878.42 1710.58 1865.25 1711.73 1859.23 1726.34 1853.22 1731.07 1852.36 1740.95 1839.4 1743.31 1840.61 1742.1 1825.29 1730.21 1822.28 1718.61 1798.22 1705.29 1799.08 1699.7 1787.91 1693.97 1781.61 1703.71 1764.28 1703.57 1752.39 1716.89 1755.69 1726.34 1752.25 1740.52 1743.8 1744.96 1743.66 1760.72 1717.02 1769.74 1704.56 1783.06 1689.52 1778.34 1679.64 1779.63 1680.07 1793.38 1654.29 1787.36 1652.57 1767.16 1644.41 1766.31 1636.24 1748.69 1639.68 1725.91 1615.48 1723.19 1604.02 1735.22 1604.02 1750.69 1624.07 1769.6 1603.45 1760.43 1596.57 1764.44 1591.42 1781.63 1590.27 1797.67 1569.65 1802.26 1568.5 1820.59 1559.34 1822.31 1557.04 1842.36 1558.76 1848.09 1557.04 1856.69 1565.06 1860.7 1590.84 1845.8 1581.68 1857.83 1585.11 1869.29 1600.58 1884.19 1605.74 1899.09 1625.79 1903.67 1618.34 1912.84 1624.64 1917.99 1618.34 1925.44 1608.6 1932.32 1605.74 1946.64 1600.01 1939.77 1595.43 1935.18 1591.99 1944.92 1585.69 1948.93 1575.38 1955.24 1582.83 1962.68 1587.41 1960.39 1590.27 1971.85 1594.85 1981.59 1596.57 2003.36 1601.73 2007.95 1594.85 2018.83 1600.01 2032.01 1601.15 2038.89 1602.36 2039.36 1595.43 2045.76 1587.41 2054.93 1579.96 2065.82 1591.42 2076.7 1609.18 2073.27 1617.19 2072.69 1626.36 2071.55 1622.92 2077.27 1606.31 2080.14 1590.27 2082.43 1590.84 2089.88 1582.83 2096.76 1589.7 2100.77 1607.46 2098.47 1620.06 2103.63 1639.54 2100.77 1661.88 2127.69 1668.76 2129.41 1669.9 2141.45 1693.96 2155.2 1676.2 2158.06 1663.6 2147.75 1652.71 2146.03 1652.14 2159.21 1632.09 2150.04 1613.19 2136.29 1622.35 2120.82 1613.19 2119.67 1609.75 2125.4 1598.86 2119.67 1593.13 2120.82 1593.71 2131.13 1593.13 2147.18 1605.74 2144.31 1612.61 2154.05 1629.22 2166.08 1624.64 2179.26 1600.58 2166.65 1586.26 2163.22 1579.96 2138.58 1572.51 2122.54 1575.37 2111.65 1570.22 2107.64 1569.07 2099.62 1551.32 2088.16 1543.87 2108.79 1532.98 2117.96 1532.98 2149.47 1543.87 2155.2 1543.87 2166.65 1556.47 2180.98 1557.05 2186.14 1589.13 2195.3 1591.99 2206.76 1607.46 2198.17 1621.78 2212.49 1625.22 2224.52 1626.94 2249.16 1622.35 2254.89 1635.53 2269.21 1648.13 2260.05 1645.27 2274.94C1645.27 2274.94 1635.53 2279.53 1634.96 2282.39 1634.38 2285.26 1629.23 2306.46 1629.23 2306.46L1644.12 2305.31 1646.98 2319.63 1649.28 2337.97 1665.89 2323.64 1686.51 2326.51 1685.94 2304.74 1693.96 2298.44 1688.23 2285.83 1705.99 2275.52 1727.19 2262.34 1739.79 2258.33 1744.37 2249.73 1752.39 2243.43 1749.53 2237.13 1756.98 2230.25C1756.98 2230.25 1760.99 2203.33 1760.99 2198.74 1760.99 2194.16 1763.28 2160.35 1763.28 2160.35L1770.15 2155.2 1765.57 2164.94 1768.43 2183.27 1774.16 2191.87 1774.16 2236.56 1780.46 2243.43 1793.64 2256.61 1815.98 2264.05 1809.11 2250.88 1835.46 2253.74 1835.46 2241.14 1844.05 2248.59 1858.94 2241.14 1851.5 2233.12 1854.36 2221.08 1846.91 2211.34 1860.66 2204.47 1865.24 2190.72 1858.37 2187.85 1860.66 2181.55 1864.67 2170.09 1853.79 2163.79 1854.37 2160.35 1874.99 2162.07 1884.73 2150.04 1901.91 2135.71 1917.38 2121.39 1926.55 2125.98 1946.6 2121.39 1959.77 2095.61 1970.66 2081.29 1972.38 2078.99 1980.4 2100.19 1994.14 2099.62 2007.89 2091.02 2011.9 2102.49 2013.05 2117.38 2010.76 2135.71 1991.28 2136.86 1989.56 2116.81 1982.68 2112.23 1967.79 2124.83 1967.79 2146.03 1973.52 2162.65 1962.07 2180.41 1946.6 2179.26 1950.61 2160.93 1956.34 2147.18 1946.03 2152.33 1934 2172.96 1918.53 2183.27 1915.67 2206.19 1917.96 2214.21 1938.58 2216.5 1954.62 2210.2 1972.38 2211.92 1990.71 2213.64 1983.84 2230.83 1991.86 2239.99 2009.04 2248.59 2017.64 2236.56 2039.41 2237.7 2039.98 2227.39 2055.45 2221.66 2057.74 2198.74 2045.14 2197.59C2045.14 2197.59 2044.56 2187.28 2044.56 2184.99 2044.56 2182.7 2062.89 2185.56 2062.89 2185.56L2084.09 2183.27 2089.25 2161.5 2075.5 2150.61 2081.8 2143.74 2058.31 2135.14 2057.17 2128.84 2050.29 2120.25 2037.12 2111.65 2031.96 2099.05 2042.85 2092.17 2043.99 2082.43 2037.69 2077.27 2039.41 2070.97 2045.14 2060.09 2026.8 2048.63 2045.7 2049.2 2054.3 2045.19 2081.79 2041.75 2081.22 2025.71 2090.96 2021.7 2092.68 2030.86 2104.13 2044.62 2097.84 2060.66 2113.88 2061.8 2115.6 2077.85 2130.49 2091.6 2111.01 2107.64 2115.02 2119.1 2109.87 2123.68 2115.02 2143.16 2126.48 2156.34 2126.48 2148.32 2135.07 2148.32 2146.53 2156.92 2148.82 2138.58 2142.52 2132.28 2141.37 2124.83 2137.94 2113.94 2151.11 2107.07 2159.13 2093.32 2173.45 2105.92 2191.79 2108.21 2199.8 2097.33 2198.09 2082.43 2205.53 2070.97 2206.68 2051.49 2210.12 2037.74 2203.24 2030.29 2197.52 2036.6 2190.64 2031.44 2176.32 2030.29 2164.29 2042.9 2151.68 2054.36 2148.82 2042.33 2132.21 2028.58 2120.75 2013.11 2123.61 2003.94 2123.1 2001.69 2133.35 1993.62 2142.8 2009.09ZM1870.69 1886.48 1863.82 1897.37 1856.94 1907.68 1844.63 1913.41 1841.19 1918.57 1828.01 1907.68 1814.55 1913.7 1796.5 1918.28 1785.33 1926.59 1766.43 1925.73 1760.41 1921.15 1762.42 1913.41 1751.82 1900.23 1720.6 1900.81C1720.6 1900.81 1711.43 1894.5 1710.57 1893.36 1709.71 1892.21 1710.57 1873.02 1710.57 1873.02L1718.31 1867 1713.15 1857.55 1726.61 1844.66 1741.8 1842.65 1747.81 1821.45 1755.55 1821.45 1756.41 1830.62 1777.6 1840.65 1795.07 1832.91 1803.95 1823.74 1813.69 1823.46 1825.15 1816.58 1832.59 1822.31 1841.76 1836.06 1847.78 1851.24 1854.65 1857.83 1865.54 1857.55 1873.27 1867.57 1868.12 1872.44 1868.12 1879.89 1870.69 1886.48Z" fill="#B9B9B9" fill-rule="evenodd"/><path d="M2143.3 2009.59 2163.07 2009.59 2185.41 1983.81 2192.29 1981.23 2203.17 1970.63 2211.19 1962.61 2213.48 1949.43 2207.18 1950.01 2202.6 1933.96 2193.43 1927.09 2188.85 1917.92 2171.66 1904.17 2169.37 1883.54 2139.87 1859.19 2142.45 1829.11 2127.84 1808.49 2120.1 1794.74 2105.5 1780.13 2081.43 1764.66 2057.8 1763.8 2035.89 1793.45 2035.21 1806.04 2034.17 1793.59 2020.42 1785.71 2003.81 1798.17 1989.49 1789.01 1976.17 1787.86 1965.43 1775.4 1957.69 1788.72 1946.95 1784.85 1947.67 1774.11 1918.17 1796.89 1905.28 1794.16 1890.24 1788.29 1886.37 1777.55 1894.54 1775.4 1891.96 1753.48 1881.65 1751.34 1878.21 1743.17 1886.95 1738.59 1888.52 1728.99 1883.36 1724.69 1878.92 1711.08 1865.75 1712.23 1859.73 1726.84 1853.72 1731.57 1852.86 1741.45 1839.9 1743.81 1841.11 1742.6 1825.79 1730.71 1822.78 1719.11 1798.72 1705.79 1799.58 1700.2 1788.41 1694.47 1782.11 1704.21 1764.78 1704.07 1752.89 1717.39 1756.19 1726.84 1752.75 1741.02 1744.3 1745.46 1744.16 1761.22 1717.52 1770.24 1705.06 1783.56 1690.02 1778.84 1680.14 1780.13 1680.57 1793.88 1654.79 1787.86 1653.07 1767.66 1644.91 1766.81 1636.74 1749.19 1640.18 1726.41 1615.98 1723.69 1604.52 1735.72 1604.52 1751.19 1624.57 1770.1 1603.95 1760.93 1597.07 1764.94 1591.92 1782.13 1590.77 1798.17 1570.15 1802.76 1569 1821.09 1559.84 1822.81 1557.54 1842.86 1559.26 1848.59 1557.54 1857.19 1565.56 1861.2 1591.34 1846.3 1582.18 1858.33 1585.61 1869.79 1601.08 1884.69 1606.24 1899.59 1626.29 1904.17 1618.84 1913.34 1625.14 1918.49 1618.84 1925.94 1609.1 1932.82 1606.24 1947.14 1600.51 1940.27 1595.93 1935.68 1592.49 1945.42 1586.19 1949.43 1575.88 1955.74 1583.33 1963.18 1587.91 1960.89 1590.77 1972.35 1595.35 1982.09 1597.07 2003.86 1602.23 2008.45 1595.35 2019.33 1600.51 2032.51 1601.65 2039.39 1602.86 2039.86 1595.93 2046.26 1587.91 2055.43 1580.46 2066.32 1591.92 2077.2 1609.68 2073.77 1617.69 2073.19 1626.86 2072.05 1623.42 2077.77 1606.81 2080.64 1590.77 2082.93 1591.34 2090.38 1583.33 2097.26 1590.2 2101.27 1607.96 2098.97 1620.56 2104.13 1640.04 2101.27 1662.38 2128.19 1669.26 2129.91 1670.4 2141.95 1694.46 2155.7 1676.7 2158.56 1664.1 2148.25 1653.21 2146.53 1652.64 2159.71 1632.59 2150.54 1613.69 2136.79 1622.85 2121.32 1613.69 2120.17 1610.25 2125.9 1599.36 2120.17 1593.63 2121.32 1594.21 2131.63 1593.63 2147.68 1606.24 2144.81 1613.11 2154.55 1629.72 2166.58 1625.14 2179.76 1601.08 2167.15 1586.76 2163.72 1580.46 2139.08 1573.01 2123.04 1575.87 2112.15 1570.72 2108.14 1569.57 2100.12 1551.82 2088.66 1544.37 2109.29 1533.48 2118.46 1533.48 2149.97 1544.37 2155.7 1544.37 2167.15 1556.97 2181.48 1557.55 2186.64 1589.63 2195.8 1592.49 2207.26 1607.96 2198.67 1622.28 2212.99 1625.72 2225.02 1627.44 2249.66 1622.85 2255.39 1636.03 2269.72 1648.63 2260.55 1645.77 2275.44C1645.77 2275.44 1636.03 2280.03 1635.46 2282.89 1634.88 2285.76 1629.73 2306.96 1629.73 2306.96L1644.62 2305.81 1647.48 2320.13 1649.78 2338.47 1666.39 2324.14 1687.01 2327.01 1686.44 2305.24 1694.46 2298.94 1688.73 2286.33 1706.49 2276.02 1727.69 2262.84 1740.29 2258.83 1744.87 2250.23 1752.89 2243.93 1750.03 2237.63 1757.48 2230.75C1757.48 2230.75 1761.49 2203.83 1761.49 2199.24 1761.49 2194.66 1763.78 2160.85 1763.78 2160.85L1770.65 2155.7 1766.07 2165.44 1768.93 2183.77 1774.66 2192.37 1774.66 2237.06 1780.96 2243.93 1794.14 2257.11 1816.48 2264.56 1809.61 2251.38 1835.96 2254.24 1835.96 2241.64 1844.55 2249.09 1859.44 2241.64 1852 2233.62 1854.86 2221.58 1847.41 2211.84 1861.16 2204.97 1865.74 2191.22 1858.87 2188.35 1861.16 2182.05 1865.17 2170.59 1854.29 2164.29 1854.87 2160.85 1875.49 2162.57 1885.23 2150.54 1902.41 2136.22 1917.88 2121.89 1927.05 2126.48 1947.1 2121.89 1960.27 2096.11 1971.16 2081.79 1972.88 2079.49 1980.9 2100.69 1994.64 2100.12 2008.39 2091.52 2012.4 2102.99 2013.55 2117.88 2011.26 2136.22 1991.78 2137.36 1990.06 2117.31 1983.18 2112.73 1968.29 2125.33 1968.29 2146.53 1974.02 2163.15 1962.57 2180.91 1947.1 2179.76 1951.11 2161.43 1956.84 2147.68 1946.53 2152.83 1934.5 2173.46 1919.03 2183.77 1916.17 2206.69 1918.46 2214.71 1939.08 2217 1955.12 2210.7 1972.88 2212.42 1991.21 2214.14 1984.34 2231.33 1992.36 2240.49 2009.54 2249.09 2018.14 2237.06 2039.91 2238.2 2040.48 2227.89 2055.95 2222.16 2058.24 2199.24 2045.64 2198.09C2045.64 2198.09 2045.06 2187.78 2045.06 2185.49 2045.06 2183.2 2063.39 2186.06 2063.39 2186.06L2084.59 2183.77 2089.75 2162 2076 2151.11 2082.3 2144.24 2058.81 2135.64 2057.67 2129.34 2050.79 2120.75 2037.62 2112.15 2032.46 2099.55 2043.35 2092.67 2044.49 2082.93 2038.19 2077.77 2039.91 2071.47 2045.64 2060.59 2027.3 2049.13 2046.2 2049.7 2054.8 2045.69 2082.29 2042.25 2081.72 2026.21 2091.46 2022.2 2093.18 2031.36 2104.63 2045.12 2098.34 2061.16 2114.38 2062.3 2116.1 2078.35 2130.99 2092.1 2111.51 2108.14 2115.52 2119.6 2110.37 2124.18 2115.52 2143.66 2126.98 2156.84 2126.98 2148.82 2135.57 2148.82 2147.03 2157.42 2149.32 2139.08 2143.02 2132.78 2141.87 2125.33 2138.44 2114.44 2151.61 2107.57 2159.63 2093.82 2173.95 2106.42 2192.29 2108.71 2200.3 2097.83 2198.59 2082.93 2206.03 2071.47 2207.18 2051.99 2210.62 2038.24 2203.74 2030.79 2198.01 2037.1 2191.14 2031.94 2176.82 2030.79 2164.79 2043.4 2152.18 2054.86 2149.32 2042.83 2132.71 2029.08 2121.25 2013.61 2124.11 2004.44 2123.6 2002.19 2133.85 1994.12 2143.3 2009.59ZM1871.19 1886.98 1864.32 1897.87 1857.44 1908.18 1845.13 1913.91 1841.69 1919.07 1828.51 1908.18 1815.05 1914.2 1797 1918.78 1785.83 1927.09 1766.93 1926.23 1760.91 1921.65 1762.92 1913.91 1752.32 1900.73 1721.1 1901.31C1721.1 1901.31 1711.93 1895 1711.07 1893.86 1710.21 1892.71 1711.07 1873.52 1711.07 1873.52L1718.81 1867.5 1713.65 1858.05 1727.11 1845.16 1742.3 1843.15 1748.31 1821.95 1756.05 1821.95 1756.91 1831.12 1778.1 1841.15 1795.57 1833.41 1804.45 1824.24 1814.19 1823.96 1825.65 1817.08 1833.09 1822.81 1842.26 1836.56 1848.28 1851.74 1855.15 1858.33 1866.04 1858.05 1873.77 1868.07 1868.62 1872.94 1868.62 1880.39 1871.19 1886.98Z" stroke="#FFFFFF" stroke-width="3.4375" stroke-miterlimit="8" fill="#B9B9B9" fill-rule="evenodd"/><path d="M1946.47 1029.47 1977.08 1047.52 1992.17 1047.09 1993.89 1054.4 1999.5 1054.4 1997.77 1067.72 1988.29 1074.17 1992.6 1084.48 1999.5 1092.65 1999.5 1106.4 2011.13 1111.13 2022.34 1123.17 2030.97 1120.02 2045.48 1124.89 2025.97 1130.9 2021.48 1139.07 2027.52 1148.09 2033.55 1151.53 2028.81 1156.26 2020.72 1156.26 2021.83 1169.57 2020.62 1181.62 2007.69 1194.94 1994.32 1195.37 1984.84 1206.55 1984.84 1238.78 1979.58 1248.47 1971.47 1234.91 1959.83 1231.91 1961.34 1224.6 1957.25 1218.58 1959.55 1194.23 1953.51 1185.06 1956.1 1177.61 1952.65 1167.01 1942.02 1160.71 1939.14 1158.41 1933.68 1161.28 1927.93 1147.52 1937.99 1126.32 1930.95 1082.33 1935.69 1068.58 1933.54 1050.1 1924.48 1041.5 1930.52 1030.33Z" stroke="#FFFFFF" stroke-width="3.4375" stroke-miterlimit="8" fill="#B9B9B9" fill-rule="evenodd"/></g></svg>